<svg xmlns="http://www.w3.org/2000/svg" width="88" height="59" viewBox="0 0 88 59"><defs><style>.a,.b{fill:#b7d2ff;}.b{font-size:18px;font-family:Yantramanav-Regular, Yantramanav;}</style></defs><g transform="translate(-173 -1064)"><g transform="translate(178 1050)"><g transform="translate(28 14)"><path class="a" d="M38,46a9.92,9.92,0,0,1-10-9.778V23.778a10,10,0,0,1,20,0V36.222A9.92,9.92,0,0,1,38,46Zm0-30.222a8.116,8.116,0,0,0-8.182,8V36.222a8.184,8.184,0,0,0,16.364,0V23.778A8.116,8.116,0,0,0,38,15.778Z" transform="translate(-28 -14)"/></g><g transform="translate(37.117 19.785)"><path class="a" d="M48.883,32.3A.886.886,0,0,1,48,31.416V27.883a.883.883,0,0,1,1.766,0v3.533A.886.886,0,0,1,48.883,32.3Z" transform="translate(-48 -27)"/></g></g><text class="b" transform="translate(173 1117)"><tspan x="0" y="0">Scroll Down</tspan></text></g></svg>